<mxfile host="app.diagrams.net" modified="2022-05-15T15:37:40.632Z" agent="5.0 (Windows NT 10.0; Win64; x64) AppleWebKit/537.36 (KHTML, like Gecko) Chrome/101.0.4951.54 Safari/537.36" etag="N5cNUzvATtYxm4RzCdoU" version="18.0.3" type="github">
  <diagram id="KALIX3_qU-DzFCup7W3A" name="Page-1">
    <mxGraphModel dx="1422" dy="706" grid="1" gridSize="10" guides="1" tooltips="1" connect="1" arrows="1" fold="1" page="1" pageScale="1" pageWidth="1169" pageHeight="827" math="0" shadow="0">
      <root>
        <mxCell id="0" />
        <mxCell id="1" parent="0" />
        <mxCell id="yHf5JVTZ74QZr-yNXHrx-9" value="InstantiationAwareBeanPostProcessor&lt;br&gt;#postProcessBeforeInstantiation" style="rounded=1;whiteSpace=wrap;html=1;fontFamily=Lucida Console;fontSize=14;fillColor=#fff2cc;strokeColor=#d6b656;" vertex="1" parent="1">
          <mxGeometry x="40" y="120" width="320" height="60" as="geometry" />
        </mxCell>
        <mxCell id="yHf5JVTZ74QZr-yNXHrx-10" value="InstantiationAwareBeanPostProcessor&lt;br&gt;#postProcessAfterInstantiation" style="rounded=1;whiteSpace=wrap;html=1;fontFamily=Lucida Console;fontSize=14;fillColor=#fff2cc;strokeColor=#d6b656;" vertex="1" parent="1">
          <mxGeometry x="440" y="120" width="320" height="60" as="geometry" />
        </mxCell>
        <mxCell id="yHf5JVTZ74QZr-yNXHrx-14" value="postProcessBeforeInstantiation" style="rounded=1;whiteSpace=wrap;html=1;fontFamily=Lucida Console;fontSize=14;fillColor=#fff2cc;strokeColor=#d6b656;" vertex="1" parent="1">
          <mxGeometry x="70" y="1910" width="280" height="40" as="geometry" />
        </mxCell>
        <mxCell id="yHf5JVTZ74QZr-yNXHrx-15" value="postProcessAfterInstantiation" style="rounded=1;whiteSpace=wrap;html=1;fontFamily=Lucida Console;fontSize=14;fillColor=#fff2cc;strokeColor=#d6b656;" vertex="1" parent="1">
          <mxGeometry x="70" y="2030" width="280" height="40" as="geometry" />
        </mxCell>
        <mxCell id="yHf5JVTZ74QZr-yNXHrx-16" value="" style="rounded=0;whiteSpace=wrap;html=1;fontFamily=Lucida Console;fontSize=14;gradientColor=none;fillColor=none;" vertex="1" parent="1">
          <mxGeometry x="30" y="1870" width="360" height="240" as="geometry" />
        </mxCell>
        <mxCell id="yHf5JVTZ74QZr-yNXHrx-17" value="AbstractAutoProxyCreator" style="text;html=1;strokeColor=none;fillColor=none;align=center;verticalAlign=middle;whiteSpace=wrap;rounded=0;fontFamily=Lucida Console;fontSize=14;" vertex="1" parent="1">
          <mxGeometry x="36" y="1871" width="200" height="30" as="geometry" />
        </mxCell>
        <mxCell id="yHf5JVTZ74QZr-yNXHrx-18" value="InstantiationAwareBeanPostProcessor&lt;br&gt;#postProcessPropertyValues" style="rounded=1;whiteSpace=wrap;html=1;fontFamily=Lucida Console;fontSize=14;fillColor=#fff2cc;strokeColor=#d6b656;" vertex="1" parent="1">
          <mxGeometry x="440" y="240" width="320" height="60" as="geometry" />
        </mxCell>
        <mxCell id="yHf5JVTZ74QZr-yNXHrx-20" value="AbstractAutowireCapableBeanFactory&lt;br&gt;#checkDependencies" style="rounded=1;whiteSpace=wrap;html=1;fontFamily=Lucida Console;fontSize=14;fillColor=#e1d5e7;strokeColor=#9673a6;" vertex="1" parent="1">
          <mxGeometry x="440" y="360" width="320" height="60" as="geometry" />
        </mxCell>
        <mxCell id="yHf5JVTZ74QZr-yNXHrx-24" value="BeanNameAware&lt;br&gt;#setBeanName" style="rounded=1;whiteSpace=wrap;html=1;fontFamily=Lucida Console;fontSize=14;fillColor=#dae8fc;strokeColor=#6c8ebf;" vertex="1" parent="1">
          <mxGeometry x="840" y="120" width="160" height="60" as="geometry" />
        </mxCell>
        <mxCell id="yHf5JVTZ74QZr-yNXHrx-26" value="BeanClassLoaderAware&lt;br&gt;#setBeanClassLoader" style="rounded=1;whiteSpace=wrap;html=1;fontFamily=Lucida Console;fontSize=14;fillColor=#dae8fc;strokeColor=#6c8ebf;" vertex="1" parent="1">
          <mxGeometry x="840" y="200" width="200" height="60" as="geometry" />
        </mxCell>
        <mxCell id="yHf5JVTZ74QZr-yNXHrx-28" value="BeanFactoryAware&lt;br&gt;#setBeanFactory" style="rounded=1;whiteSpace=wrap;html=1;fontFamily=Lucida Console;fontSize=14;fillColor=#dae8fc;strokeColor=#6c8ebf;" vertex="1" parent="1">
          <mxGeometry x="840" y="280" width="160" height="60" as="geometry" />
        </mxCell>
        <mxCell id="yHf5JVTZ74QZr-yNXHrx-29" value="BeanPostProcessor&lt;br&gt;#postProcessBeforeInitialization&lt;br&gt;&lt;br&gt;&lt;br&gt;&lt;br&gt;&lt;br&gt;&lt;br&gt;&lt;br&gt;&lt;br&gt;&lt;br&gt;&lt;br&gt;&lt;br&gt;&lt;br&gt;&lt;br&gt;&lt;br&gt;&lt;br&gt;&lt;br&gt;&lt;br&gt;&lt;br&gt;&lt;br&gt;&lt;br&gt;&lt;br&gt;&lt;br&gt;&lt;br&gt;&lt;br&gt;&lt;br&gt;&lt;br&gt;&lt;br&gt;&lt;br&gt;" style="rounded=1;whiteSpace=wrap;html=1;fontFamily=Lucida Console;fontSize=14;fillColor=#f8cecc;strokeColor=#b85450;" vertex="1" parent="1">
          <mxGeometry x="840" y="360" width="320" height="530" as="geometry" />
        </mxCell>
        <mxCell id="yHf5JVTZ74QZr-yNXHrx-30" value="AbstractAutowireCapableBeanFactory&lt;br&gt;#invokeInitMethods&lt;br&gt;&lt;br&gt;&lt;br&gt;&lt;br&gt;&lt;br&gt;&lt;br&gt;" style="rounded=1;whiteSpace=wrap;html=1;fontFamily=Lucida Console;fontSize=14;fillColor=#e1d5e7;strokeColor=#9673a6;" vertex="1" parent="1">
          <mxGeometry x="840" y="920" width="320" height="160" as="geometry" />
        </mxCell>
        <mxCell id="yHf5JVTZ74QZr-yNXHrx-31" value="InitializingBean#afterPropertiesSet" style="text;html=1;align=center;verticalAlign=middle;resizable=0;points=[];autosize=1;strokeColor=none;fillColor=none;fontSize=14;fontFamily=Lucida Console;" vertex="1" parent="1">
          <mxGeometry x="850" y="1760" width="310" height="20" as="geometry" />
        </mxCell>
        <mxCell id="yHf5JVTZ74QZr-yNXHrx-32" value="initMethod" style="text;html=1;align=center;verticalAlign=middle;resizable=0;points=[];autosize=1;strokeColor=none;fillColor=none;fontSize=14;fontFamily=Lucida Console;" vertex="1" parent="1">
          <mxGeometry x="850" y="1780" width="100" height="20" as="geometry" />
        </mxCell>
        <mxCell id="yHf5JVTZ74QZr-yNXHrx-33" value="BeanPostProcessor&lt;br&gt;#postProcessAfterInitialization" style="rounded=1;whiteSpace=wrap;html=1;fontFamily=Lucida Console;fontSize=14;fillColor=#f8cecc;strokeColor=#b85450;" vertex="1" parent="1">
          <mxGeometry x="840" y="1120" width="280" height="60" as="geometry" />
        </mxCell>
        <mxCell id="yHf5JVTZ74QZr-yNXHrx-34" value="" style="endArrow=none;html=1;rounded=0;fontFamily=Lucida Console;fontSize=14;" edge="1" parent="1">
          <mxGeometry width="50" height="50" relative="1" as="geometry">
            <mxPoint x="400" y="600" as="sourcePoint" />
            <mxPoint x="400" as="targetPoint" />
          </mxGeometry>
        </mxCell>
        <mxCell id="yHf5JVTZ74QZr-yNXHrx-35" value="" style="endArrow=none;html=1;rounded=0;fontFamily=Lucida Console;fontSize=14;" edge="1" parent="1">
          <mxGeometry width="50" height="50" relative="1" as="geometry">
            <mxPoint x="800" y="600" as="sourcePoint" />
            <mxPoint x="800" as="targetPoint" />
          </mxGeometry>
        </mxCell>
        <mxCell id="yHf5JVTZ74QZr-yNXHrx-36" value="" style="endArrow=none;html=1;rounded=0;fontFamily=Lucida Console;fontSize=14;" edge="1" parent="1">
          <mxGeometry width="50" height="50" relative="1" as="geometry">
            <mxPoint y="80" as="sourcePoint" />
            <mxPoint x="1160" y="80" as="targetPoint" />
          </mxGeometry>
        </mxCell>
        <mxCell id="yHf5JVTZ74QZr-yNXHrx-37" value="&lt;span style=&quot;&quot;&gt;createBeanInstance&lt;/span&gt;" style="text;html=1;align=center;verticalAlign=middle;resizable=0;points=[];autosize=1;strokeColor=none;fillColor=none;fontSize=14;fontFamily=Lucida Console;" vertex="1" parent="1">
          <mxGeometry x="40" y="50" width="170" height="20" as="geometry" />
        </mxCell>
        <mxCell id="yHf5JVTZ74QZr-yNXHrx-38" value="&lt;span style=&quot;color: rgb(0, 0, 0); font-family: &amp;quot;Lucida Console&amp;quot;; font-size: 14px; font-style: normal; font-variant-ligatures: normal; font-variant-caps: normal; font-weight: 400; letter-spacing: normal; orphans: 2; text-align: center; text-indent: 0px; text-transform: none; widows: 2; word-spacing: 0px; -webkit-text-stroke-width: 0px; background-color: rgb(248, 249, 250); text-decoration-thickness: initial; text-decoration-style: initial; text-decoration-color: initial; float: none; display: inline !important;&quot;&gt;populateBean&lt;/span&gt;" style="text;whiteSpace=wrap;html=1;fontSize=14;fontFamily=Lucida Console;" vertex="1" parent="1">
          <mxGeometry x="450" y="45" width="130" height="30" as="geometry" />
        </mxCell>
        <mxCell id="yHf5JVTZ74QZr-yNXHrx-39" value="&lt;span style=&quot;&quot;&gt;initializeBean&lt;/span&gt;" style="text;html=1;align=center;verticalAlign=middle;resizable=0;points=[];autosize=1;strokeColor=none;fillColor=none;fontSize=14;fontFamily=Lucida Console;" vertex="1" parent="1">
          <mxGeometry x="840" y="50" width="130" height="20" as="geometry" />
        </mxCell>
        <mxCell id="yHf5JVTZ74QZr-yNXHrx-40" value="InstantiationAwareBeanPostProcessor&lt;br&gt;#postProcessBeforeInstantiation&lt;br&gt;&lt;br&gt;&lt;br&gt;&lt;br&gt;&lt;br&gt;&lt;br&gt;&lt;br&gt;" style="rounded=1;whiteSpace=wrap;html=1;fontFamily=Lucida Console;fontSize=14;fillColor=#fff2cc;strokeColor=#d6b656;" vertex="1" parent="1">
          <mxGeometry x="1200" y="1160" width="320" height="180" as="geometry" />
        </mxCell>
        <mxCell id="yHf5JVTZ74QZr-yNXHrx-41" value="InstantiationAwareBeanPostProcessor&lt;br&gt;#postProcessAfterInstantiation" style="rounded=1;whiteSpace=wrap;html=1;fontFamily=Lucida Console;fontSize=14;fillColor=#fff2cc;strokeColor=#d6b656;" vertex="1" parent="1">
          <mxGeometry x="1600" y="1160" width="320" height="60" as="geometry" />
        </mxCell>
        <mxCell id="yHf5JVTZ74QZr-yNXHrx-42" value="InstantiationAwareBeanPostProcessor&lt;br&gt;#postProcessPropertyValues" style="rounded=1;whiteSpace=wrap;html=1;fontFamily=Lucida Console;fontSize=14;fillColor=#fff2cc;strokeColor=#d6b656;" vertex="1" parent="1">
          <mxGeometry x="1600" y="1280" width="320" height="60" as="geometry" />
        </mxCell>
        <mxCell id="yHf5JVTZ74QZr-yNXHrx-43" value="AbstractAutowireCapableBeanFactory&lt;br&gt;#checkDependencies" style="rounded=1;whiteSpace=wrap;html=1;fontFamily=Lucida Console;fontSize=14;fillColor=#e1d5e7;strokeColor=#9673a6;" vertex="1" parent="1">
          <mxGeometry x="1600" y="1400" width="320" height="60" as="geometry" />
        </mxCell>
        <mxCell id="yHf5JVTZ74QZr-yNXHrx-44" value="BeanNameAware&lt;br&gt;#setBeanName" style="rounded=1;whiteSpace=wrap;html=1;fontFamily=Lucida Console;fontSize=14;fillColor=#dae8fc;strokeColor=#6c8ebf;" vertex="1" parent="1">
          <mxGeometry x="2000" y="1160" width="160" height="60" as="geometry" />
        </mxCell>
        <mxCell id="yHf5JVTZ74QZr-yNXHrx-45" value="BeanClassLoaderAware&lt;br&gt;#setBeanClassLoader" style="rounded=1;whiteSpace=wrap;html=1;fontFamily=Lucida Console;fontSize=14;fillColor=#dae8fc;strokeColor=#6c8ebf;" vertex="1" parent="1">
          <mxGeometry x="2000" y="1240" width="200" height="60" as="geometry" />
        </mxCell>
        <mxCell id="yHf5JVTZ74QZr-yNXHrx-46" value="BeanFactoryAware&lt;br&gt;#setBeanFactory" style="rounded=1;whiteSpace=wrap;html=1;fontFamily=Lucida Console;fontSize=14;fillColor=#dae8fc;strokeColor=#6c8ebf;" vertex="1" parent="1">
          <mxGeometry x="2000" y="1320" width="160" height="60" as="geometry" />
        </mxCell>
        <mxCell id="yHf5JVTZ74QZr-yNXHrx-47" value="BeanPostProcessor&lt;br&gt;#postProcessBeforeInitialization" style="rounded=1;whiteSpace=wrap;html=1;fontFamily=Lucida Console;fontSize=14;fillColor=#f8cecc;strokeColor=#b85450;" vertex="1" parent="1">
          <mxGeometry x="2000" y="1400" width="280" height="60" as="geometry" />
        </mxCell>
        <mxCell id="yHf5JVTZ74QZr-yNXHrx-48" value="AbstractAutowireCapableBeanFactory&lt;br&gt;#invokeInitMethods" style="rounded=1;whiteSpace=wrap;html=1;fontFamily=Lucida Console;fontSize=14;fillColor=#e1d5e7;strokeColor=#9673a6;" vertex="1" parent="1">
          <mxGeometry x="2000" y="1480" width="320" height="60" as="geometry" />
        </mxCell>
        <mxCell id="yHf5JVTZ74QZr-yNXHrx-49" value="BeanPostProcessor&lt;br&gt;#postProcessAfterInitialization" style="rounded=1;whiteSpace=wrap;html=1;fontFamily=Lucida Console;fontSize=14;fillColor=#f8cecc;strokeColor=#b85450;" vertex="1" parent="1">
          <mxGeometry x="2000" y="1560" width="280" height="60" as="geometry" />
        </mxCell>
        <mxCell id="yHf5JVTZ74QZr-yNXHrx-50" value="" style="endArrow=none;html=1;rounded=0;fontFamily=Lucida Console;fontSize=14;" edge="1" parent="1">
          <mxGeometry width="50" height="50" relative="1" as="geometry">
            <mxPoint x="1560" y="1640" as="sourcePoint" />
            <mxPoint x="1560" y="1040" as="targetPoint" />
          </mxGeometry>
        </mxCell>
        <mxCell id="yHf5JVTZ74QZr-yNXHrx-51" value="" style="endArrow=none;html=1;rounded=0;fontFamily=Lucida Console;fontSize=14;" edge="1" parent="1">
          <mxGeometry width="50" height="50" relative="1" as="geometry">
            <mxPoint x="1960" y="1640" as="sourcePoint" />
            <mxPoint x="1960" y="1040" as="targetPoint" />
          </mxGeometry>
        </mxCell>
        <mxCell id="yHf5JVTZ74QZr-yNXHrx-52" value="" style="endArrow=none;html=1;rounded=0;fontFamily=Lucida Console;fontSize=14;" edge="1" parent="1">
          <mxGeometry width="50" height="50" relative="1" as="geometry">
            <mxPoint x="1160" y="1120" as="sourcePoint" />
            <mxPoint x="2320" y="1120" as="targetPoint" />
          </mxGeometry>
        </mxCell>
        <mxCell id="yHf5JVTZ74QZr-yNXHrx-53" value="&lt;span style=&quot;&quot;&gt;createBeanInstance&lt;/span&gt;" style="text;html=1;align=center;verticalAlign=middle;resizable=0;points=[];autosize=1;strokeColor=none;fillColor=none;fontSize=14;fontFamily=Lucida Console;" vertex="1" parent="1">
          <mxGeometry x="1200" y="1090" width="170" height="20" as="geometry" />
        </mxCell>
        <mxCell id="yHf5JVTZ74QZr-yNXHrx-54" value="&lt;span style=&quot;color: rgb(0, 0, 0); font-family: &amp;quot;Lucida Console&amp;quot;; font-size: 14px; font-style: normal; font-variant-ligatures: normal; font-variant-caps: normal; font-weight: 400; letter-spacing: normal; orphans: 2; text-align: center; text-indent: 0px; text-transform: none; widows: 2; word-spacing: 0px; -webkit-text-stroke-width: 0px; background-color: rgb(248, 249, 250); text-decoration-thickness: initial; text-decoration-style: initial; text-decoration-color: initial; float: none; display: inline !important;&quot;&gt;populateBean&lt;/span&gt;" style="text;whiteSpace=wrap;html=1;fontSize=14;fontFamily=Lucida Console;" vertex="1" parent="1">
          <mxGeometry x="1610" y="1085" width="130" height="30" as="geometry" />
        </mxCell>
        <mxCell id="yHf5JVTZ74QZr-yNXHrx-55" value="&lt;span style=&quot;&quot;&gt;initializeBean&lt;/span&gt;" style="text;html=1;align=center;verticalAlign=middle;resizable=0;points=[];autosize=1;strokeColor=none;fillColor=none;fontSize=14;fontFamily=Lucida Console;" vertex="1" parent="1">
          <mxGeometry x="2000" y="1090" width="130" height="20" as="geometry" />
        </mxCell>
        <mxCell id="yHf5JVTZ74QZr-yNXHrx-56" value="&lt;span style=&quot;&quot;&gt;AbstractAutoProxyCreator&lt;/span&gt;&lt;br style=&quot;&quot;&gt;&lt;span style=&quot;&quot;&gt;#postProcessBeforeInstantiation&lt;/span&gt;" style="rounded=1;whiteSpace=wrap;html=1;fontFamily=Lucida Console;fontSize=14;fillColor=#D6B656;strokeColor=#d6b656;" vertex="1" parent="1">
          <mxGeometry x="1220" y="1230" width="280" height="60" as="geometry" />
        </mxCell>
        <mxCell id="yHf5JVTZ74QZr-yNXHrx-57" value="ApplicationContextAwareProcessor&lt;br&gt;#postProcessBeforeInitialization&lt;br&gt;&lt;br&gt;&lt;br&gt;&lt;br&gt;&lt;br&gt;&lt;br&gt;&lt;br&gt;&lt;br&gt;&lt;br&gt;" style="rounded=1;whiteSpace=wrap;html=1;fontFamily=Lucida Console;fontSize=14;fillColor=#B85450;strokeColor=#b85450;" vertex="1" parent="1">
          <mxGeometry x="840" y="430" width="320" height="190" as="geometry" />
        </mxCell>
        <mxCell id="yHf5JVTZ74QZr-yNXHrx-58" value="EnvironmentAware#setEnvironment" style="text;html=1;align=center;verticalAlign=middle;resizable=0;points=[];autosize=1;strokeColor=#6c8ebf;fillColor=#dae8fc;fontSize=14;fontFamily=Lucida Console;" vertex="1" parent="1">
          <mxGeometry x="840" y="480" width="280" height="20" as="geometry" />
        </mxCell>
        <mxCell id="yHf5JVTZ74QZr-yNXHrx-59" value="EmbeddedValueResolverAware#setEmbeddedValueResolver" style="text;html=1;align=center;verticalAlign=middle;resizable=0;points=[];autosize=1;strokeColor=#6c8ebf;fillColor=#dae8fc;fontSize=14;fontFamily=Lucida Console;" vertex="1" parent="1">
          <mxGeometry x="840" y="500" width="450" height="20" as="geometry" />
        </mxCell>
        <mxCell id="yHf5JVTZ74QZr-yNXHrx-62" value="ResourceLoaderAware#setResourceLoader" style="text;html=1;align=center;verticalAlign=middle;resizable=0;points=[];autosize=1;strokeColor=#6c8ebf;fillColor=#dae8fc;fontSize=14;fontFamily=Lucida Console;" vertex="1" parent="1">
          <mxGeometry x="840" y="520" width="330" height="20" as="geometry" />
        </mxCell>
        <mxCell id="yHf5JVTZ74QZr-yNXHrx-63" value="ApplicationEventPublisherAware#setApplicationEventPublisher" style="text;html=1;align=center;verticalAlign=middle;resizable=0;points=[];autosize=1;strokeColor=#6c8ebf;fillColor=#dae8fc;fontSize=14;fontFamily=Lucida Console;" vertex="1" parent="1">
          <mxGeometry x="840" y="540" width="510" height="20" as="geometry" />
        </mxCell>
        <mxCell id="yHf5JVTZ74QZr-yNXHrx-64" value="MessageSourceAware#setMessageSource" style="text;html=1;align=center;verticalAlign=middle;resizable=0;points=[];autosize=1;strokeColor=#6c8ebf;fillColor=#dae8fc;fontSize=14;fontFamily=Lucida Console;" vertex="1" parent="1">
          <mxGeometry x="840" y="560" width="310" height="20" as="geometry" />
        </mxCell>
        <mxCell id="yHf5JVTZ74QZr-yNXHrx-65" value="ApplicationContextAware#setApplicationContext" style="text;html=1;align=center;verticalAlign=middle;resizable=0;points=[];autosize=1;strokeColor=#6c8ebf;fillColor=#dae8fc;fontSize=14;fontFamily=Lucida Console;" vertex="1" parent="1">
          <mxGeometry x="840" y="580" width="400" height="20" as="geometry" />
        </mxCell>
        <mxCell id="yHf5JVTZ74QZr-yNXHrx-66" value="ImportAwareBeanPostProcessor&lt;br&gt;#postProcessBeforeInitialization&lt;br&gt;&lt;br&gt;&lt;br&gt;" style="rounded=1;whiteSpace=wrap;html=1;fontFamily=Lucida Console;fontSize=14;fillColor=#B85450;strokeColor=#b85450;" vertex="1" parent="1">
          <mxGeometry x="840" y="637" width="320" height="83" as="geometry" />
        </mxCell>
        <mxCell id="yHf5JVTZ74QZr-yNXHrx-67" value="ImportAware#setImportMetadata" style="text;html=1;align=center;verticalAlign=middle;resizable=0;points=[];autosize=1;strokeColor=#6c8ebf;fillColor=#dae8fc;fontSize=14;fontFamily=Lucida Console;" vertex="1" parent="1">
          <mxGeometry x="840" y="684" width="260" height="20" as="geometry" />
        </mxCell>
        <mxCell id="yHf5JVTZ74QZr-yNXHrx-72" value="InitDestroyAnnotationBeanPostProcessor&lt;br&gt;#postProcessBeforeInitialization&lt;br&gt;&lt;br&gt;&lt;br&gt;&lt;br&gt;&lt;br&gt;" style="rounded=1;whiteSpace=wrap;html=1;fontFamily=Lucida Console;fontSize=14;fillColor=#B85450;strokeColor=#b85450;" vertex="1" parent="1">
          <mxGeometry x="840" y="730" width="320" height="130" as="geometry" />
        </mxCell>
        <mxCell id="yHf5JVTZ74QZr-yNXHrx-71" value="InitDestroyAnnotationBeanPostProcessor&lt;br&gt;.LifecycleMetadata&lt;br&gt;#invokeInitMethods" style="text;html=1;align=center;verticalAlign=middle;resizable=0;points=[];autosize=1;strokeColor=#6c8ebf;fillColor=#dae8fc;fontSize=12;fontFamily=Lucida Console;" vertex="1" parent="1">
          <mxGeometry x="840" y="790" width="290" height="50" as="geometry" />
        </mxCell>
        <mxCell id="yHf5JVTZ74QZr-yNXHrx-73" value="&lt;font style=&quot;font-size: 14px;&quot;&gt;InitializingBean#afterPropertiesSet&lt;/font&gt;" style="text;html=1;align=center;verticalAlign=middle;resizable=0;points=[];autosize=1;strokeColor=none;fillColor=#9673A6;fontSize=12;fontFamily=Lucida Console;" vertex="1" parent="1">
          <mxGeometry x="840" y="990" width="310" height="20" as="geometry" />
        </mxCell>
        <mxCell id="yHf5JVTZ74QZr-yNXHrx-74" value="AbstractAutowireCapableBeanFactory&lt;br&gt;#invokeCustomInitMethod" style="text;html=1;align=center;verticalAlign=middle;resizable=0;points=[];autosize=1;strokeColor=none;fillColor=#9673A6;fontSize=14;fontFamily=Lucida Console;" vertex="1" parent="1">
          <mxGeometry x="840" y="1020" width="300" height="40" as="geometry" />
        </mxCell>
      </root>
    </mxGraphModel>
  </diagram>
</mxfile>
